<?xml version="1.0" encoding="UTF-8"?>
<svg id="Layer_2" xmlns="http://www.w3.org/2000/svg" viewBox="0 0 50 28.79">
  <defs>
    <style>
      .cls-1 {
        fill: #fff;
      }
    </style>
  </defs>
  <g id="Layer_1-2" data-name="Layer_1">
    <g>
      <path class="cls-1" d="M0,27.18c.25-4.66,1.63-9.02,3.85-12.82C1.42,10.14.01,5.25,0,.04v27.14Z"/>
      <path class="cls-1" d="M47.82,14.45c.42-1,1.2-1.8,2.18-2.26-.95-1.35-2-2.62-3.16-3.78-1.78-1.78-3.78-3.32-5.97-4.58C37.27,1.74,33.17.37,28.8.02h-.51l-.36-.02H1.48c4.7.24,9.1,1.6,12.94,3.84-2.2,1.26-4.22,2.81-6.02,4.6s-3.29,3.75-4.55,5.92c1.27,2.2,2.81,4.21,4.59,5.99,1.78,1.78,3.79,3.33,5.98,4.59-3.85,2.24-8.27,3.61-12.98,3.85h26.89l.46-.04c4.37-.36,8.48-1.72,12.08-3.82,2.17-1.25,4.16-2.78,5.92-4.55,1.15-1.14,2.18-2.38,3.12-3.71-.93-.47-1.68-1.25-2.08-2.21ZM37.51,13.56c-1.82,0-3.37-1.1-4.04-2.68.67-1.57,2.22-2.68,4.04-2.68s3.37,1.1,4.04,2.68c-.67,1.57-2.22,2.68-4.04,2.68Z"/>
    </g>
  </g>
</svg>