<?xml version="1.0" encoding="UTF-8"?>
<svg id="Ebene_2" data-name="Ebene 2" xmlns="http://www.w3.org/2000/svg" viewBox="0 0 162.71 163">
  <defs>
    <style>
      .cls-1 {
        fill: #289af9;
        stroke-width: 0px;
      }
    </style>
  </defs>
  <g id="Ebene_1-2" data-name="Ebene 1">
    <path class="cls-1" d="M34.69,41.15c4.26-2.75,8.86-5.4,14.1-6.17s11.29.83,13.86,4.87c1.35-9.84,10.79-17.22,20.03-23.06C99.17,6.36,119.14-2.66,139.17.72c3.43.58,6.92,1.59,9.38,3.74,1.96,1.7,3.1,3.99,3.84,6.31,4.36,13.79-4.66,27.82-13.33,39.99,4.47-1.97,9.51-2.96,14.52-2.86,1.94.04,4,.29,5.5,1.36,1.24.88,1.93,2.21,2.42,3.53,3.17,8.46-.24,17.93-6.37,25.06s-14.68,12.35-23.09,17.43c9.24.59,15.02,9.01,17.32,16.8,1.55,5.26,2.23,10.94.1,16.05-2.32,5.55-7.78,9.81-13.96,12.29s-13.05,3.35-19.84,3.74c-12.74.72-25.6-.18-38.03-2.69,2.14,2.37,2.1,5.84.62,8.56s-4.17,4.81-7.01,6.54c-12.98,7.89-31.95,9.07-44.35.5-4.04-2.79-7.31-6.59-8.42-10.96-1.32-5.21.55-10.72,3.8-15.26,3.24-4.53,7.76-8.26,12.22-11.93-7.21.76-17.6,4.72-27.96,2.16-4.65-1.15-6.22-6.07-6.49-10.26-1.34-21.37,34.42-33.39,34.42-33.39,0,0-6.58-3.33-9.01-4.33-18.3-7.56-.92-25.38,9.25-31.94Z"/>
  </g>
</svg>