<?xml version="1.0" encoding="UTF-8"?>
<svg id="Ebene_2" data-name="Ebene 2" xmlns="http://www.w3.org/2000/svg" viewBox="0 0 231.12 248.3">
  <defs>
    <style>
      .cls-1 {
        fill: #1f00ff;
        stroke-width: 0px;
      }
    </style>
  </defs>
  <g id="Ebene_1-2" data-name="Ebene 1">
    <g>
      <path class="cls-1" d="M71.98,95.72c1.21-1.38-.89-3.2-2.61-3.83-2.55-.93-5.1-1.85-7.66-2.78-1.99-.72-4.01-1.45-6.13-1.64-4.04-.36-7.94,1.28-11.79,2.54-6.61,2.16-13.57,3.27-20.52,3.27-1.94,0-4.22.07-5.34,1.66-.49.69-.65,1.56-.8,2.39-.65,3.73-1.23,7.59-.33,11.26s3.61,7.16,7.34,7.82c3.66.65,7.25-1.47,10.96-1.57,2.02-.06,4,.49,5.95,1.02,8.04,2.22,17.1,5.29,20.36,12.96.55,1.3.89,2.84.21,4.08-.45.82-1.28,1.36-2.11,1.78-6.46,3.23-14.14.8-21.09-1.16s-15.34-3.09-20.58,1.87c-1.47,1.39-2.58,3.19-4.32,4.23-.85.51-1.85.82-2.5,1.57-.68.77-.86,1.86-.8,2.88.24,3.79,3.97,7,7.76,6.67,1.39-.12,2.71-.65,4.09-.81,3.57-.43,6.92,1.54,10.09,3.22,7.72,4.08,16.16,6.89,24.84,7.76,5.76.58,11.88.24,16.84-2.74s8.33-9.18,6.56-14.69c-1.1-3.45-3.9-6.02-6.26-8.77s-4.46-6.24-3.73-9.79c.48-2.34,2.12-4.25,3.21-6.37s1.54-5-.14-6.69c-1.17-1.18-2.97-1.39-4.63-1.46-10.74-.44-22.12,2.3-31.87-2.23-1.11-.52-2.31-1.3-2.45-2.52-.13-1.12.7-2.11,1.5-2.91,1.62-1.62,3.34-3.14,5.15-4.54.84-.65,1.75-1.3,2.79-1.5,1.43-.28,2.88.3,4.2.91,4.45,2.04,8.78,4.56,13.6,5.37,2.31.39,4.82.34,6.84-.86s3.34-3.78,2.5-5.97-4.21-3.09-5.67-1.26"/>
      <path class="cls-1" d="M152.01,110.4c-.03-1.27-.71-2.42-1.38-3.5-1.36-2.21-2.72-4.42-4.09-6.63-1.13-1.84-2.32-3.73-4.13-4.91-2.97-1.94-6.82-1.51-10.34-1.93-9.92-1.18-18.45-9.52-28.39-8.61-1.41.13-2.88.49-3.86,1.51-1.29,1.33-1.37,3.38-1.52,5.22-.69,8.94-4.53,17.61-10.7,24.12l4.6-6.2c-2.71,4.06-7.11,6.6-10.88,9.7-3.77,3.1-7.22,7.47-6.75,12.33.27,2.74,1.75,5.19,3.26,7.49,2.52,3.86,5.37,7.75,9.49,9.82,4.5,2.26,9.9,2.03,14.49,4.08,3.64,1.63,6.52,4.57,9.91,6.68,3.28,2.04,7.06,3.28,10.91,3.58,5.11.4,10.65-1.07,13.93-5.02,3.27-3.95,3.33-10.62-.72-13.78-3.76-2.93-9.13-1.98-13.75-.84-4.62,1.15-9.92,2.25-13.82-.47-2.43-1.7-3.82-4.78-3.48-7.72.09-.77.32-1.59.94-2.07.5-.39,1.16-.5,1.79-.58,4.36-.61,8.81-1.15,13.16-.47,3.01.47,5.91,1.53,8.93,1.92,7.06.9,14.49-2.2,18.82-7.85.66-.86,1.27-1.82,1.37-2.9.17-1.77-1.06-3.43-1.01-5.21.07-2.84,3.27-4.92,3.22-7.76ZM122.39,118.5c-.27,4.5-3.29,4.89-7.12,4.75-2.62-.1-5.2-.5-7.73.45-2.07.78-4.12,3.63-6.55,3.01-1.93-.49-2.53-3.11-1.81-4.97.72-1.86,2.27-3.26,3.38-4.91,2.07-3.08,2.56-6.91,3.73-10.42.33-.98.73-1.97,1.47-2.69,3.29-3.17,9.35.03,10.78,3.43,1.26,3,4.05,7.89,3.85,11.35Z"/>
      <path class="cls-1" d="M224.96,138.43c-4.18-7.58-13.82-11.55-16.39-19.82-1.1-3.54-.69-7.35-.34-11.04s.61-7.54-.75-11c-1.36-3.45-4.81-6.37-8.49-5.87-1.45.2-2.8.9-3.88,1.88-.66.6-1.19,1.3-1.61,2.07-.19-.09-.38-.18-.57-.27-1.29,3.63-1.09,7.77.55,11.26-3.95-.79-5.3-5.64-7.93-8.7-3.18-3.69-8.69-4.77-13.42-3.58-4.73,1.19-8.76,4.29-12.14,7.81-1.91,1.99-3.7,4.22-4.5,6.86-.75,2.49-.57,5.2-1.35,7.68-1.05,3.32-3.67,5.84-5.91,8.5-2.24,2.66-4.26,5.96-3.71,9.4.76,4.78,6.17,7.84,6.76,12.64.18,1.45-.11,2.95.32,4.35.94,3.07,4.78,4.14,7.98,4.01,3.21-.13,6.57-.95,9.53.29,1.39.58,2.57,1.58,3.94,2.2,3.82,1.74,8.27.32,12.22-1.11,2.44-.88,5.18-2.07,5.93-4.56.33-1.1.2-2.31.57-3.4.44-1.31,1.51-2.28,2.47-3.28,3.52-3.68,5.81-8.52,6.44-13.57,3.24,5.41,3.93,12.28,1.83,18.23-.5,1.41-1.15,2.95-.62,4.35.29.77.91,1.37,1.6,1.83,4.19,2.78,9.87.32,13.75-2.87,2.74-2.25,5.18-4.86,7.24-7.74.67-.93,1.31-1.94,1.43-3.08.13-1.21-.36-2.4-.94-3.47ZM190.38,119.04c-.07-.03-.13-.06-.2-.09-.6.49-.99,1.29-1.06,2.08-.11,1.18.31,2.33.71,3.45,1.14,3.22,2.12,6.9.57,9.95-.61,1.18-1.55,2.16-2.54,3.05-1.78,1.59-3.75,2.95-5.78,4.2-1.73,1.06-3.78,2.07-5.7,1.43-2.25-.74-3.82-3.59-6.15-3.15-.64.12-1.21.49-1.86.58-1.95.26-3.24-2.29-2.69-4.18.55-1.89,2.16-3.23,3.48-4.69,3.24-3.59,4.97-8.5,4.69-13.33-.09-1.55-.37-3.1-.18-4.64.19-1.54.97-3.13,2.4-3.75,1.45-.63,3.18-.07,4.43.89s2.17,2.28,3.23,3.46c1.79,1.99,4.01,3.59,6.46,4.67.29-.24.63-.41,1.02-.47.45-.06.85-.14,1.26-.33-.21,1.2-.96,1.36-2.08.88Z"/>
    </g>
    <g>
      <path class="cls-1" d="M76.7,228.14c-1.71-2.52-4.1-4.5-6.46-6.44,2.99-.79,6.57-2.23,6.89-5.31.25-2.45-1.84-4.51-4.01-5.67-2.92-1.55-6.32-2.19-9.61-1.82,6.83-8.1,9.44-19.57,6.8-29.84-.58-2.27-1.52-4.62-3.47-5.92-2.03-1.36-4.79-1.24-7.01-.21s-3.99,2.82-5.54,4.7c-8.64,10.49-11.96,24.28-18.35,36.28-1.52-2.49-3.08-5.07-3.49-7.97-.34-2.37.12-4.79.76-7.1,1.34-4.82,3.47-9.42,6.29-13.56-2.62,3.38-5.85,6.29-9.48,8.55-.05-6.58,4.58-12.19,9.3-16.77,4.72-4.59,10-9.14,11.92-15.43.17-.56.29-1.25-.1-1.69-.4-.44-1.11-.38-1.68-.22-4.07,1.18-6.58,5.73-10.74,6.58-.49.1-1.03.14-1.46-.12-.98-.58-.68-2.06-.26-3.12,1.8-4.51,3.6-9.01,5.4-13.52-4.99,3.85-9.98,7.71-14.97,11.56-.65.5-1.34,1.02-2.15,1.14-1.6.24-2.98-1.11-3.87-2.45-1.88-2.82-2.94-6.18-3.02-9.56.05,2.13-1.78,9.75-3.38,11.18-1.84,1.64-6.41.38-6.56,4.16-.2,5,10.16,6.97,10.66,12.91-6.18.1-12,4.76-13.45,10.77,2.27.97,4.53,1.94,6.8,2.91,2.48,1.06,5.27,2.49,5.83,5.12.35,1.66-.32,3.38-1.3,4.76-1.87,2.63-4.75,4.33-7.55,5.93-2.8,1.6-5.69,3.26-7.61,5.86-1.92,2.59-2.59,6.4-.7,9.02,2.09,2.88,6.7,3.11,9.53.95,2.27-1.74,3.45-4.53,5.28-6.73,1.83-2.2,5.11-3.83,7.5-2.25,2.36,1.57,2.18,5.08,1.46,7.83-.8,3.05-1.98,6.11-4.19,8.35-1.23,1.24-2.74,2.2-3.87,3.54s-1.8,3.3-.98,4.85c3.97-1.17,8.07-2.41,11.22-5.1,2.57-2.2,4.33-5.66,4-8.93.88,1.9,2.66,3.46,4.34,4.82,4.69,3.8,9.43,7.64,14.78,10.44,5.35,2.81,11.42,4.56,17.43,3.89,4.75-.53,9.8-3.13,11.01-7.75.78-2.95-.2-6.14-1.92-8.67ZM52.26,220.54c-3.41.24-8.08-.15-6.66-4.04,1.29-3.53,6.02-4.89,7.75-8.24.65-1.25,1.22-2.94,2.63-3.02,4.6-.26,3.4,14.8-3.71,15.3Z"/>
      <path class="cls-1" d="M127.13,204.13c2.58-2.26,5.27-4.41,8.04-6.42-1.11-2.08-4.23-2.13-5.72-3.95-1.45-1.78-.74-4.52.69-6.31s3.44-3.04,4.92-4.79c1.48-1.75,2.35-4.41,1.06-6.3-4.08,1.65-8.36,2.78-12.72,3.35-2.24.29-5.15.04-5.88-2.1-.28-.82-.13-1.72.02-2.57.87-4.9,1.73-9.8,2.6-14.7-3.38,3.13-6.76,6.25-10.14,9.38-.55.51-1.18,1.05-1.93,1.04-.89-.01-1.56-.79-2.06-1.53-2.62-3.89-3.93-8.64-3.68-13.32-2.62,4.86-4.86,11.02-8.42,15.25-3.03,3.6-11.93-6.48-15.52-4.19-4.43,2.84,4.81,14.02,3.43,17.71-1.08,2.87-10.88,2.95-13.21,1.4,3.84,2.55,7.4,5.52,10.59,8.84-3.46,2.58-6.77,5.36-9.9,8.33,3.99,4.49,10.91,4.2,16.76,5.55.77.18,1.56.4,2.17.9,1.59,1.31,1.28,3.94.04,5.58s-3.13,2.64-4.74,3.91c-1.61,1.27-3.08,3.13-2.85,5.17,4.66-1.12,9.61-1.01,14.22.3-1.61,4.78-2.39,9.85-2.28,14.89,2.36-3.95,4.81-7.84,7.34-11.68.59-.9,1.31-1.87,2.37-2.03.77-.12,1.52.23,2.22.57,6.57,3.18,13.14,6.36,19.7,9.54,1.92-1.07,1.84-3.89,1.05-5.94-.79-2.05-2.06-4.12-1.65-6.28.08-.4.22-.81.54-1.07.73-.61,1.81-.11,2.7.23,2.49.94,5.51.23,7.32-1.72-1.7-3.97-4.23-7.58-7.37-10.53-.81-.76-1.71-1.57-1.89-2.66-.24-1.52,1-2.83,2.15-3.84ZM112.11,200.36c-.25,2.74,1.92,5.47,1.06,8.08-2.28-1.69-4.69-3.22-7.2-4.57-.78-.42-1.63-.83-2.51-.72-.65.08-1.24.45-1.78.82-1.81,1.24-3.48,2.68-4.98,4.29.74-2.58,3.14-4.92,2.38-7.49-.6-2.02-2.89-2.99-4.97-3.32-1.54-.24-3.16-.31-4.62-.8,0,0-.01,0-.02,0-.03-.01-.06-.02-.09-.03-.22-.07-.44-.16-.66-.27,0,0,0,0,0,0-.22-.11-.45-.23-.67-.38.22.14.44.27.67.38,0,0,0,0,0,0,.21.1.44.19.66.27.03,0,.06.02.09.03,0,0,.01,0,.02,0,4.55,1.35,7.86-5.34,2.65-8.81,8.02,4.09,7.19-5.28,11.12-8.52-.31,4.91,5.81,8.25,9.17,4-1.26,2.16-2.02,4.6-2.2,7.09-.16,2.09.45,4.68,2.47,5.25,1.58.44,3.55-.54,4.78.55-2.51-.42-5.15,1.61-5.38,4.15Z"/>
      <path class="cls-1" d="M172.41,175.56c1.97-.67,4.25-.82,5.68.6-2.33,5.83-7.9,10.24-14.11,11.17,3.47,2.64,6.52,5.84,8.98,9.44-9.03-.65-17.85-3.96-25.09-9.4,3.92,2.32,5.76,7.17,5.72,11.73s-1.63,8.94-3.16,13.23-3.04,8.72-2.89,13.27c5.32-1.76,6.42-10.06,11.88-11.31.39,3.12.79,6.24,1.18,9.37,5.14-1.19,7.43-6.98,10.64-11.17.97-1.26,2.19-2.48,3.76-2.73s3.41.98,3.22,2.56c-.04.35-.18.68-.31,1.01-1.94,4.8-3.89,9.6-5.83,14.4-1.3,3.2-2.74,6.59-5.58,8.56-2.31,1.6-5.21,2.02-7.99,2.4-3.5.48-7,.95-10.5,1.43-2.79.38-6.51.2-7.3-2.51-.24-.81-.11-1.68,0-2.52.31-2.13.63-4.25.94-6.38.25-1.72,0-4.13-1.72-4.29-.83-.08-1.57.48-2.21,1.01-1.8,1.47-3.6,2.94-5.39,4.42-1.6-1.06-1.62-3.41-1.13-5.27,1.12-4.26,3.85-7.89,5.51-11.97,1.66-4.08,1.98-9.3-1.17-12.37-.7-.68-1.59-1.3-1.82-2.25-.25-1.05.42-2.08,1.06-2.96,2.68-3.7,5.36-7.39,8.04-11.09-2.07-.43-4.05.9-5.74,2.17-3.92,2.94-7.85,5.88-11.77,8.82,3.17-4.4,6.34-8.8,9.51-13.2-2.66-.81-5.46.46-8.09,1.38s-5.94,1.34-7.86-.68c3.62-1.9,7.44-3.43,11.38-4.53-2.85-1.95-5.21-4.61-6.8-7.68,5.02.3,10,1.28,14.76,2.89.53-3.76-2.94-6.71-5.71-9.32-4.77-4.5-8.48-11.32-6.23-17.49,3.03,1.11,11.36,16.05,13.2,6.99.74-3.65-.05-7.09,1.19-10.85.56-1.72,1.16-3.61,2.37-5.01.29-.34,4.12-2.8,4.04-2.35-1.16,6.79-.46,13.89,1.99,20.32.27.71.7,1.52,1.45,1.6.53.06,1.01-.28,1.42-.61,2.42-1.99,4.18-4.65,6.33-6.93s4.95-4.26,8.08-4.23c-.11,3.62-1.7,7.01-3.26,10.28-4.08,8.58-8.17,17.17-12.25,25.75,8.14-5.95,16.28-11.91,24.42-17.86-3.93,4.42-7.39,9.24-10.33,14.37.26-.46,6.38-1.83,7.73-3.08,3.92-3.63,2.22-5.95.14-10.16-.47-.94-.94-1.93-.92-2.98.03-1.48,1.05-2.74,2.12-3.76,2.31-2.19,5.13-3.85,8.17-4.79.47-.15.96-.28,1.45-.22,1.17.14,1.97,1.37,2.04,2.55s-.4,2.32-.87,3.41c3.49,2.76,8.68,1.14,12.39-1.31s7.18-5.75,11.6-6.29c-4.1,3.38-6.55,8.68-6.47,14,5.28-1.77,10.56-3.55,15.84-5.32,2.15-.72,4.36-1.46,6.64-1.39s4.66,1.09,5.71,3.1c1.01,1.91.63,4.27-.19,6.27-2.2,5.39-7.56,9.36-13.36,9.88-3.71.33-8.23-.31-10.43,2.7,2.87,3.24,5.75,6.49,8.62,9.73-.47,1.92-3.42,1.43-4.94.16s-3.35-3-5.14-2.17c.98,2.5,4.78,2.46,6.4,4.61,1.8,2.4-.43,6.09-3.33,6.84s-5.91-.43-8.68-1.59c1.28-1.38,1.43-3.66.35-5.2s-3.29-2.16-5.01-1.41c.8-2.88-.36-6.2-2.78-7.96s-5.94-1.83-8.42-.17c0,6.31,4.27,11.97,9.51,15.48,5.24,3.51,11.41,5.3,17.39,7.29,4.95,1.65,10.44,4.09,12.01,9.07,1.41,4.49-.99,9.23-3.59,13.15-4.5,6.77-9.87,12.96-15.92,18.38-1.22,1.09-2.94,2.22-4.37,1.42,1.04-1.36,2.11-2.78,2.48-4.45s-.16-3.67-1.66-4.48c-1.12-.6-2.49-.42-3.75-.23-8.02,1.25-16.05,2.5-24.07,3.74,2.5-1.83,5.09-3.75,6.54-6.49s1.37-6.55-1.02-8.53c-3.14-2.6-7.88-.7-11.91-1.38-3.8-.64-6.77-3.59-9.11-6.65,2.2.41,3.62-2.65,2.82-4.73s-2.77-3.44-4.29-5.09-2.61-4.22-1.33-6.05c2.12,1.41,4.25,2.83,6.37,4.24.77-5.93,4.26-11.44,9.29-14.67-.39,3.3-.69,6.6-.9,9.91-.08,1.3.41,3.15,1.69,2.91.49-.09.85-.5,1.19-.86,1.78-1.91,4.12-3.29,6.65-3.93.46-.12.98-.2,1.36.07.53.36.52,1.13.45,1.76-.25,2.37-.51,4.74-.76,7.1,2.28-1.02,4.83-1.43,7.32-1.17-.96,1.91-1.92,3.82-2.88,5.73-.22.44-.45.93-.32,1.41.12.43.5.73.87.97,4.33,2.91,10.14,3.48,14.96,1.46.67-.28,1.35-.63,1.79-1.22,1.26-1.72-.27-4.06-1.76-5.58-4.14-4.25-8.78-8.36-14.47-10.02-2.66-.77-5.5-1-7.96-2.28-4.15-2.16-6.4-7.44-5.07-11.94-1.67.35-3.38.71-5.06.41s-3.33-1.39-3.76-3.03c2.11.25,4.33.48,6.31-.3s3.59-2.93,3.01-4.98c-.4-1.4-1.67-2.35-2.86-3.2-.25,1.69-.5,3.39-.75,5.08"/>
    </g>
    <g>
      <path class="cls-1" d="M49.11,1.78C43.84.55,38.42-.05,33.01,0c4.17,15.05,7.57,30.31,10.19,45.71.25,1.47,2.09,7.13.78,8.16-1.14.89-4.17-1.48-5.08-1.94-5.69-2.88-12.36-3.56-18.44-1.28-4.57,1.72-8.54,5.3-10.16,9.91-.84,2.4-1.04,4.97-.98,7.51.2,8.61,3.56,17.4,10.22,22.88,6.65,5.47,16.79,6.92,24.08,2.33,2.94-1.86,5.45-4.92,5.4-8.4.39,2.4.78,4.8,1.17,7.2.12.76.28,1.58.84,2.11.67.62,1.68.64,2.59.61,3.02-.09,6.05-.26,9.06-.52-5.88-30.62-10.41-61.49-13.58-92.5ZM44.46,76.68c-1,4.11-4.35,7.69-8.2,9.31-.5.21-1.02.39-1.56.36-.57-.03-1.1-.31-1.6-.6-5.92-3.55-8.75-11.52-6.39-18.01.3-.82.68-1.63,1.26-2.29,1.44-1.64,3.92-2.05,6.04-1.51,2.11.55,3.93,1.9,5.56,3.34,3.11,2.75,5.95,5.01,4.88,9.4Z"/>
      <path class="cls-1" d="M106.6,73.39c-4.76,1.47-9.42,3.24-13.96,5.29-.01,4.35-4.38,8.15-8.69,7.57-5.56-.75-8.14-10.59-8.14-10.59,0,0,20.04-6.43,27.52-9.81.51-.23,1.07-.52,1.25-1.05.16-.48-.05-1-.25-1.47l-3.57-8.09c-1.01-2.28-2.03-4.59-3.61-6.51-4.36-5.29-11.94-6.56-18.79-6.37-3.86.11-7.9.63-11.07,2.85-5.68,3.98-6.69,11.99-5.99,18.89,1.01,9.89,4.86,20,12.75,26.06,7.89,6.05,20.33,6.66,27.26-.47,4.1-4.22,5.72-10.41,5.29-16.27ZM77.74,57.84c4.15-1.94,9.61-.44,12.18,3.35-3.04,1.11-10.54,2.71-13.34,4.32-1.02.59-1.75-6.32,1.16-7.68Z"/>
      <path class="cls-1" d="M131.54,82.03c-8.87,1.87-11.39-12.23-11.28-12.62s23.19-8.9,28.5-10.6c-.7-5.22-4.17-9.8-8.56-12.71-4.39-2.91-9.62-4.32-14.84-5.01-4.27-.57-8.88-.62-12.59,1.59-4.37,2.61-6.53,7.95-6.61,13.04-.08,5.09,1.58,10.03,3.34,14.81,2.15,5.86,4.55,11.8,8.78,16.38,4.23,4.58,10.71,7.59,16.76,6.07,4.32-1.08,7.89-4.35,10.04-8.25,2.15-3.9,3.01-8.4,3.25-12.85-4.91.11-9.81.75-14.58,1.9,1.32,4.21,1.04,7.56-2.21,8.25ZM121.82,51.48c3.85-2.04,8.34.67,9.97,2.24-1.66,1.56-10.29,4.87-12.31,5.56,0,0-3.06-4.94,2.34-7.8Z"/>
      <path class="cls-1" d="M200.5,34.85c-3.02-3.49-7.67-5.13-12.21-5.94-3.56-.63-7.29-.84-10.73.25-8.28,2.63-12.5,11.69-15.07,19.99.08-3.19.17-6.38.25-9.57-.05,1.96-16.39-.62-14.74,4.45.52,1.6,2.72,2.57,3.29,4.53,1.07,3.66.39,8.8.52,12.62.54,16.77.5,33.57-.13,50.34,3.51.06,7.02.11,10.53.17,1.44-14.9,2.87-29.8,4.31-44.71-.44,4.47-.65,9.6,2.55,12.74,3.02,2.96,7.81,2.87,12.02,2.42,5.68-.61,11.66-1.66,16-5.37,6.62-5.65,7.4-15.43,7.54-24.12.11-6.24-.07-13.08-4.15-17.79ZM187.46,61.78c-.36.85-.79,1.7-1.46,2.33-1.01.94-2.42,1.28-3.79,1.5-16.59,2.66-15.52-20.83-2.56-20.87,3.7,0,7.05,2.77,8.37,6.22s.86,7.4-.57,10.81Z"/>
    </g>
  </g>
</svg>