<?xml version="1.0" encoding="UTF-8"?>
<svg id="Ebene_2" data-name="Ebene 2" xmlns="http://www.w3.org/2000/svg" viewBox="0 0 166 83">
  <defs>
    <style>
      .cls-1 {
        fill: #3f6cff;
      }

      .cls-1, .cls-2, .cls-3, .cls-4, .cls-5 {
        stroke-width: 0px;
      }

      .cls-2 {
        fill: #3ff7ff;
      }

      .cls-3 {
        fill: #ff0;
      }

      .cls-4 {
        fill: #ff2a2a;
      }

      .cls-5 {
        fill: #ffdf3f;
      }
    </style>
  </defs>
  <g id="Ebene_1-2" data-name="Ebene 1">
    <g>
      <path class="cls-4" d="M83,0C37.16,0,0,37.16,0,83h65c0-9.94,8.06-18,18-18s18,8.06,18,18h65C166,37.16,128.84,0,83,0Z"/>
      <path class="cls-5" d="M83,66c9.6,0,17.43,7.53,17.95,17h47.03c-.54-35.44-29.41-64-64.97-64S18.56,47.56,18.03,83h47.03c.52-9.47,8.35-17,17.95-17Z"/>
      <path class="cls-2" d="M83,66c9.6,0,17.43,7.53,17.95,17h30.03c-.53-26.05-21.8-47-47.97-47s-47.44,20.95-47.97,47h30.03c.52-9.47,8.35-17,17.95-17Z"/>
      <path class="cls-1" d="M83,66c9.6,0,17.43,7.53,17.95,17h16.03c-.53-18.31-15.53-33-33.97-33s-33.44,14.69-33.97,33h16.03c.52-9.47,8.35-17,17.95-17Z"/>
    </g>
    <polygon class="cls-3" points="26 6 31.3 15.7 41 21 31.3 26.3 26 36 20.7 26.3 11 21 20.7 15.7 26 6"/>
    <polygon class="cls-3" points="44 25 46.83 30.17 52 33 46.83 35.83 44 41 41.17 35.83 36 33 41.17 30.17 44 25"/>
  </g>
</svg>