<?xml version="1.0" encoding="UTF-8"?>
<svg id="Ebene_2" data-name="Ebene 2" xmlns="http://www.w3.org/2000/svg" viewBox="0 0 197.6 144.74">
  <defs>
    <style>
      .cls-1 {
        fill: #fff200;
      }

      .cls-1, .cls-2, .cls-3, .cls-4 {
        stroke-width: 0px;
      }

      .cls-2 {
        fill: red;
      }

      .cls-3 {
        fill: #00c7cc;
      }

      .cls-4 {
        fill: #007aff;
      }
    </style>
  </defs>
  <g id="Ebene_1-2" data-name="Ebene 1">
    <g>
      <path class="cls-2" d="M13.44,127.52c11.98-20.79,25.31-40.81,39.93-59.84.3-.39,1-1.26-.24.31.17-.22.34-.44.51-.66.43-.55.85-1.1,1.28-1.64.86-1.1,1.73-2.19,2.6-3.27,1.67-2.06,3.36-4.11,5.08-6.12,3.45-4.04,7.04-7.96,10.8-11.71s7.81-7.42,12.02-10.79c.4-.32,2.16-1.66.35-.29.5-.38,1-.77,1.51-1.14,1.13-.84,2.27-1.66,3.42-2.46,2.27-1.57,4.59-3.06,6.96-4.45s4.85-2.71,7.37-3.88c.65-.3,1.31-.59,1.97-.88.89-.4-1.78.73-.46.19.37-.15.73-.3,1.1-.44,1.29-.51,2.6-.99,3.91-1.44,5.52-1.89,11.21-3.22,16.99-4.01l-1.92.26c7.02-.92,14.12-1.01,21.15-.1l-1.92-.26c5.5.75,10.85,2.13,15.99,4.21.9.36-1.76-.78-.49-.2.35.16.7.32,1.05.48.52.24,1.04.49,1.55.75.9.46,1.79.94,2.66,1.46.77.45,1.52.92,2.26,1.42.36.24.72.49,1.07.74.56.4,2.11,1.7-.03-.05,1.34,1.1,2.65,2.23,3.86,3.48.56.58,1.1,1.17,1.62,1.78.26.3.5.61.76.92.71.86-1.21-1.62-.55-.72.14.19.28.38.42.57.96,1.32,1.83,2.71,2.62,4.14.37.68.72,1.37,1.05,2.07.16.35.32.71.48,1.06.46,1.01-.77-1.91-.37-.87.08.22.17.43.26.65,1.37,3.53,2.25,7.22,2.76,10.97l-.26-1.92c.88,6.64.63,13.37-.26,20l.26-1.92c-1.72,12.67-5.64,24.98-10.41,36.81-.26.65-.53,1.31-.8,1.96-.14.34-.28.68-.43,1.02-.22.52-.59,1.36.4-.94-.1.22-.19.45-.29.67-.56,1.32-1.14,2.63-1.72,3.94-1.11,2.49-2.26,4.96-3.45,7.41-1.93,4.01-3.96,7.97-6.06,11.89-1.3,2.43-2.69,4.83-3.95,7.29-1.72,3.37-.99,8.01,2.6,9.91,3.31,1.75,8.07,1,9.91-2.6,1.96-3.84,4.13-7.57,6.12-11.4,3.95-7.62,7.55-15.41,10.83-23.34,3.7-8.94,6.89-18.12,9.11-27.54s3.76-19.91,2.96-29.89-3.46-19.61-9.5-27.5c-3.49-4.56-7.52-8.37-12.36-11.5-5.76-3.73-12.41-6.32-19.06-7.9-15.36-3.65-31.86-2.53-46.85,2.23s-29.15,14-41.12,24.88c-11.99,10.9-22.12,23.65-31.79,36.6-10.45,13.99-20.24,28.48-29.3,43.41-2.2,3.62-4.35,7.26-6.46,10.93-1.89,3.28-.87,8.07,2.6,9.91s7.89.91,9.91-2.6h0Z"/>
      <path class="cls-1" d="M24.88,132.5c6.57-11.27,13.58-22.29,21.01-33.02,3.25-4.69,6.58-9.33,9.99-13.9.61-.82,1.23-1.65,1.85-2.47.28-.38.57-.75.86-1.12.16-.21.32-.42.48-.63.13-.17.26-.34.39-.5l-.74.96c1.33-1.85,2.82-3.61,4.25-5.38,5.91-7.3,12.18-14.33,18.97-20.82,3.55-3.39,7.24-6.63,11.11-9.66.4-.31,1.52-1.12-.33.25.19-.14.38-.29.57-.44.48-.36.96-.72,1.44-1.08,1.06-.78,2.13-1.54,3.21-2.29,1.96-1.35,3.97-2.64,6.02-3.87,2.34-1.4,4.74-2.7,7.19-3.9,1.17-.57,2.35-1.1,3.54-1.63,1.27-.56-1.71.7-.43.18.33-.13.66-.27.98-.4.66-.26,1.32-.52,1.98-.76,5.12-1.89,10.42-3.24,15.83-3.97l-1.92.26c5.48-.71,11.06-.83,16.55-.12l-1.92-.26c3.13.42,6.22,1.12,9.17,2.25.64.24,2.02.95-.53-.24.29.13.58.26.87.39.66.31,1.3.63,1.93.99,1.16.65,2.19,1.47,3.31,2.17.17.11-1.69-1.35-1.01-.77.12.1.25.2.37.3.22.18.44.37.65.56.5.44.97.9,1.44,1.38.41.43.81.87,1.19,1.33.2.24.38.5.59.73.14.16-1.3-1.74-.79-1.02.11.15.22.3.33.45.73,1.02,1.39,2.09,1.97,3.2.3.56.57,1.13.83,1.71.05.12.1.23.16.35.41.9-.75-1.85-.47-1.11.13.33.26.66.39.99,1.06,2.82,1.73,5.77,2.14,8.75l-.26-1.92c.82,6.14.55,12.37-.28,18.49l.26-1.92c-1.36,9.94-4.13,19.65-7.62,29.04-.87,2.35-1.81,4.68-2.76,7-.33.81.84-1.96.25-.59-.11.27-.23.53-.34.8-.24.57-.49,1.13-.74,1.69-.51,1.15-1.03,2.3-1.56,3.44-1.96,4.21-4.08,8.35-6.36,12.39s-4.53,7.67-7.11,11.3c-1.03,1.45-1.18,3.93-.73,5.58s1.76,3.5,3.33,4.33c3.73,1.97,7.56.71,9.91-2.6,4.26-5.99,7.9-12.42,11.19-18.98,4.14-8.28,7.76-16.86,10.71-25.63s5.13-17.95,6.24-27.25c.98-8.13.89-16.63-1.29-24.58s-7.02-15.41-14.04-20.44c-7.72-5.53-17.83-7.25-27.13-7.23-13.67.02-26.97,3.97-38.99,10.34s-22.12,14.67-31.47,23.91-16.84,18.47-24.39,28.43c-9.42,12.43-18.21,25.35-26.39,38.63-2.17,3.52-4.29,7.06-6.37,10.63-1.91,3.27-.86,8.08,2.6,9.91s7.87.9,9.91-2.6h0Z"/>
      <path class="cls-3" d="M39.36,135.64c4.91-9.25,10.47-18.16,16.36-26.82,3.21-4.72,6.53-9.37,9.95-13.94.84-1.12,1.69-2.25,2.54-3.36.17-.22.34-.45.51-.67.94-1.23-1.05,1.35-.1.13.52-.66,1.03-1.33,1.55-1.99,1.72-2.19,3.46-4.36,5.23-6.5,6.75-8.19,13.85-16.14,21.57-23.44.77-.73,1.56-1.44,2.38-2.12.48-.4.96-.8,1.44-1.19.27-.21.53-.43.8-.64.16-.13.35-.25.5-.4-.14.13-1.73,1.32-.76.59,2.83-2.14,5.75-4.16,8.78-6.03,1.95-1.2,3.93-2.33,5.96-3.39,1.01-.53,2.02-1.03,3.05-1.52.57-.27,1.13-.53,1.7-.78.19-.09.38-.17.57-.25,1.63-.71-1.41.57-.28.12,4.47-1.8,9.06-3.23,13.85-3.88l-1.92.26c3.12-.4,6.27-.47,9.4-.06l-1.92-.26c1.49.21,2.97.52,4.41.95.35.11,2.03.94,2.29.81-.19.09-1.95-.86-.6-.24.38.17.75.35,1.12.54,1.37.71,2.62,1.56,3.87,2.44-2.23-1.57-.3-.22.23.26.49.44.97.91,1.43,1.39s.85.97,1.28,1.46c-1.82-2.12-.33-.42.07.18.7,1.05,1.28,2.15,1.82,3.29.48,1.02-.82-2.04-.24-.57.09.23.18.47.26.71.23.64.43,1.28.6,1.93.34,1.25.58,2.51.75,3.79l-.26-1.92c.47,3.67.33,7.38-.16,11.04l.26-1.92c-.62,4.5-1.76,8.92-3.17,13.24-.76,2.31-1.6,4.6-2.5,6.86-.21.52-.42,1.05-.64,1.57-.2.49-.75,1.72.2-.47-.09.21-.18.42-.27.63-.52,1.21-1.06,2.42-1.61,3.61-4.17,9.1-9.08,17.85-14.22,26.43-2.56,4.28-5.18,8.51-7.81,12.75-2,3.22-.8,8.11,2.6,9.91s7.77.84,9.91-2.6c9.98-16.1,19.92-32.38,26.64-50.17,6.07-16.06,9.76-36.95-3.73-50.44-7.04-7.05-17.08-10.44-26.95-9.89s-19.03,3.96-27.6,8.48c-6.78,3.58-13.16,7.97-19.04,12.89-6.85,5.72-12.9,12.56-18.73,19.28-15.1,17.38-28.9,36.26-40.34,56.26-1.21,2.11-2.38,4.24-3.52,6.39-1.77,3.34-.96,8.03,2.6,9.91,3.35,1.77,8.01.98,9.91-2.6h0Z"/>
      <path class="cls-4" d="M52.12,140.87c8.37-14.81,16.8-29.61,26.59-43.54,1.21-1.72,2.44-3.43,3.69-5.13.63-.85,1.26-1.69,1.89-2.52.16-.21.32-.42.48-.63.7-.92-.37.47-.41.53.38-.53.81-1.04,1.21-1.55,2.67-3.37,5.44-6.66,8.34-9.84s5.83-6.15,8.95-9.01c1.59-1.46,3.21-2.88,4.87-4.25.73-.6,1.46-1.19,2.2-1.78,1.31-1.03-1.3.99.02-.02.45-.34.9-.68,1.35-1.01,1.91-1.4,3.86-2.74,5.87-4,.78-.49,1.56-.99,2.37-1.42.36-.19.73-.38,1.1-.55.16-.07.32-.14.47-.22.96-.44-1.64.66-.86.36,3.73-1.46,7.59-2.46,11.56-3.02l-1.92.26c3.11-.41,6.26-.57,9.38-.16l-1.92-.26c.99.14,1.97.34,2.93.63.21.07.42.15.64.21,1.09.34-1.77-.85-.77-.33.37.19.74.37,1.1.59.31.19.6.42.9.62-2.23-1.5-.97-.77-.42-.28s.99.97,1.46,1.49c.89,1-1.16-1.66-.43-.55.18.27.36.53.52.8.18.3.35.6.51.91.17.34.69,1.56.07.08s-.09-.17.03.21c.1.3.19.61.27.92.18.7.31,1.41.41,2.12l-.26-1.92c.28,2.19.2,4.39-.08,6.57l.26-1.92c-.59,4.29-1.91,8.44-3.51,12.45-.1.25-.2.5-.3.75-.13.32-.61,1.47-.06.15s.12-.28-.01.02-.26.59-.39.89c-.5,1.12-1.01,2.23-1.55,3.33-1.09,2.26-2.25,4.49-3.44,6.7-4.59,8.47-9.8,16.57-14.76,24.82-2.02,3.36-4.07,6.75-5.62,10.36-.8,1.86-1.29,3.54-.73,5.58.46,1.68,1.76,3.5,3.33,4.33,1.68.89,3.72,1.33,5.58.73,1.67-.54,3.6-1.64,4.33-3.33,2.1-4.86,5.01-9.38,7.76-13.88,3.7-6.04,7.45-12.05,10.92-18.23,3.73-6.63,7.17-13.46,9.77-20.62,2.13-5.86,3.75-12.43,2.99-18.7-.43-3.57-1.3-7.07-3.32-10.12s-4.75-5.86-8.02-7.38c-4.45-2.07-9.33-2.7-14.21-2.4s-9.35,1.1-13.79,2.51c-9.08,2.89-16.87,9.01-23.99,15.18s-13.87,13.51-19.88,21.08c-12.45,15.69-22.77,32.82-32.64,50.21-1.11,1.95-2.22,3.91-3.32,5.87-1.86,3.3-.89,8.06,2.6,9.91s7.92.92,9.91-2.6h0Z"/>
    </g>
  </g>
</svg>