<?xml version="1.0" encoding="UTF-8"?>
<svg id="Ebene_2" data-name="Ebene 2" xmlns="http://www.w3.org/2000/svg" viewBox="0 0 197.55 186.47">
  <defs>
    <style>
      .cls-1 {
        fill: #e0ff00;
        stroke-width: 0px;
      }
    </style>
  </defs>
  <g id="Ebene_1-2" data-name="Ebene 1">
    <path class="cls-1" d="M132.77,0c-5.64,24.23-9.91,49.23-12.98,70.35,25.2-2.64,52.56-8.23,77.76-10.87-26.03,14.26-83.63,47.61-83.63,47.61,0,0,13.21,42.57,19.35,61.6,1.89,5.86,3.79,11.77,4.05,17.78-22.78-16.93-43.96-35.21-63.29-54.61.68.09-74.32,30.09-74.03,30.13-.29-.03,47.71-71.03,48.42-71.13.28.1-34.72-37.9-34.72-37.9l56.46,8.58S132.71-.05,132.77,0Z"/>
  </g>
</svg>