<?xml version="1.0" encoding="UTF-8"?>
<svg id="Ebene_2" data-name="Ebene 2" xmlns="http://www.w3.org/2000/svg" viewBox="0 0 178.53 185.93">
  <defs>
    <style>
      .cls-1 {
        fill: #fa0;
        stroke-width: 0px;
      }
    </style>
  </defs>
  <g id="Ebene_1-2" data-name="Ebene 1">
    <path class="cls-1" d="M79.99,38.55c5.18-1.43,25.13-31.98,30.89-38.55-3.72,8.36-5.89,35.73.11,37.61,3.63,1.14,33.17-14.91,44-23.55-7.12,14.78-21.8,20.08-24.11,36.17-.45,3.1-.27,6.58,1.97,8.89,2.87,2.96,7.8,2.78,12.01,2.2,11.54-1.6,22.88-4.52,33.67-8.69-9.24,8.16-18.48,16.32-27.72,24.48-6.41,5.66-13.39,12.9-11.62,21.01,1.43,6.52,8.02,10.68,14.06,14.13,4.41,2.52,8.81,5.04,13.22,7.56-8.13.64-16.26,1.28-24.39,1.92-4.13.33-8.44,1.11-11.39,3.86-7.7,7.18-5.44,42.47-.37,58.8-5.98-10.73-27.15-42.31-35.33-44.08-8.61-1.86-21.32,16.43-26.22,23.35-4.99,7.04-9.3,14.51-12.86,22.28,1.09-14.65,3.87-27.28,2.08-41.87-.58-4.69-1-9.18-6-9.42,0,0-30,5.65-51.99,22.43,17.99-17.72,36.99-43.16,39.23-46.17,3.9-5.25-14.63-11.86-38.24-19.59,12.74-.38,41-4.71,43-13.19.73-3.09-22.83-21.51-31-30.14,12.62,3.25,36,8.48,39.81,3.4,4.85-6.46-7.81-37.31-7.81-37.31,0,0,23.16,27.77,35,24.49Z"/>
  </g>
</svg>